<svg viewBox="0 0 162 36" xmlns="http://www.w3.org/2000/svg">
  <path d="M50.072 26.192c-1.072 0-2.12-.128-3.144-.384-1.024-.272-1.84-.608-2.448-1.008l1.248-2.688c.576.368 1.272.672 2.088.912a9.042 9.042 0 002.4.336c1.584 0 2.376-.392 2.376-1.176 0-.368-.216-.632-.648-.792-.432-.16-1.096-.296-1.992-.408-1.056-.16-1.928-.344-2.616-.552a4.142 4.142 0 01-1.8-1.104c-.496-.528-.744-1.28-.744-2.256 0-.816.232-1.536.696-2.16.48-.64 1.168-1.136 2.064-1.488.912-.352 1.984-.528 3.216-.528.912 0 1.816.104 2.712.312.912.192 1.664.464 2.256.816l-1.248 2.664a7.45 7.45 0 00-3.72-.96c-.8 0-1.4.112-1.8.336-.4.224-.6.512-.6.864 0 .4.216.68.648.84.432.16 1.12.312 2.064.456 1.056.176 1.92.368 2.592.576a3.802 3.802 0 011.752 1.08c.496.528.744 1.264.744 2.208 0 .8-.24 1.512-.72 2.136-.48.624-1.184 1.112-2.112 1.464-.912.336-2 .504-3.264.504zM66.806 25.376c-.368.272-.824.48-1.368.624a7.111 7.111 0 01-1.68.192c-1.536 0-2.728-.392-3.576-1.176-.832-.784-1.248-1.936-1.248-3.456v-5.304h-1.992v-2.88h1.992v-3.144h3.744v3.144h3.216v2.88h-3.216v5.256c0 .544.136.968.408 1.272.288.288.688.432 1.2.432.592 0 1.096-.16 1.512-.48l1.008 2.64zM81.157 19.592c0 .048-.024.384-.072 1.008h-9.768c.176.8.592 1.432 1.248 1.896.656.464 1.472.696 2.448.696.672 0 1.264-.096 1.776-.288a4.46 4.46 0 001.464-.96l1.992 2.16c-1.216 1.392-2.992 2.088-5.328 2.088-1.456 0-2.744-.28-3.864-.84-1.12-.576-1.984-1.368-2.592-2.376-.608-1.008-.912-2.152-.912-3.432 0-1.264.296-2.4.888-3.408a6.3 6.3 0 012.472-2.376c1.056-.576 2.232-.864 3.528-.864 1.264 0 2.408.272 3.432.816a5.857 5.857 0 012.4 2.352c.592 1.008.888 2.184.888 3.528zm-6.696-3.864c-.848 0-1.56.24-2.136.72-.576.48-.928 1.136-1.056 1.968h6.36c-.128-.816-.48-1.464-1.056-1.944-.576-.496-1.28-.744-2.112-.744zM88.506 12.896c2 0 3.536.48 4.608 1.44 1.072.944 1.608 2.376 1.608 4.296V26h-3.504v-1.608c-.704 1.2-2.016 1.8-3.936 1.8-.992 0-1.856-.168-2.592-.504-.72-.336-1.272-.8-1.656-1.392-.384-.592-.576-1.264-.576-2.016 0-1.2.448-2.144 1.344-2.832.912-.688 2.312-1.032 4.2-1.032h2.976c0-.816-.248-1.44-.744-1.872-.496-.448-1.24-.672-2.232-.672-.688 0-1.368.112-2.04.336-.656.208-1.216.496-1.68.864l-1.344-2.616c.704-.496 1.544-.88 2.52-1.152a11.474 11.474 0 013.048-.408zm-.288 10.776c.64 0 1.208-.144 1.704-.432a2.486 2.486 0 001.056-1.32V20.6H88.41c-1.536 0-2.304.504-2.304 1.512 0 .48.184.864.552 1.152.384.272.904.408 1.56.408zM111.403 8.192V26h-3.576v-1.488c-.928 1.12-2.272 1.68-4.032 1.68-1.216 0-2.32-.272-3.312-.816a5.866 5.866 0 01-2.304-2.328c-.56-1.008-.84-2.176-.84-3.504 0-1.328.28-2.496.84-3.504a5.866 5.866 0 012.304-2.328c.992-.544 2.096-.816 3.312-.816 1.648 0 2.936.52 3.864 1.56V8.192h3.744zm-6.96 14.928c.944 0 1.728-.32 2.352-.96.624-.656.936-1.528.936-2.616s-.312-1.952-.936-2.592c-.624-.656-1.408-.984-2.352-.984-.96 0-1.752.328-2.376.984-.624.64-.936 1.504-.936 2.592s.312 1.96.936 2.616c.624.64 1.416.96 2.376.96zM127.685 13.088l-5.832 13.704c-.592 1.488-1.328 2.536-2.208 3.144-.864.608-1.912.912-3.144.912a6.555 6.555 0 01-1.992-.312c-.656-.208-1.192-.496-1.608-.864l1.368-2.664c.288.256.616.456.984.6a3.2 3.2 0 001.128.216c.512 0 .928-.128 1.248-.384.32-.24.608-.648.864-1.224l.048-.12-5.592-13.008h3.864l3.624 8.76 3.648-8.76h3.6zM136.844 12.896c1.2 0 2.288.28 3.264.84a5.821 5.821 0 012.328 2.328c.56.992.84 2.152.84 3.48 0 1.328-.28 2.496-.84 3.504a6.028 6.028 0 01-2.328 2.328c-.976.544-2.064.816-3.264.816-1.776 0-3.128-.56-4.056-1.68V26h-3.576V8.192h3.744v6.264c.944-1.04 2.24-1.56 3.888-1.56zm-.648 10.224c.96 0 1.744-.32 2.352-.96.624-.656.936-1.528.936-2.616s-.312-1.952-.936-2.592c-.608-.656-1.392-.984-2.352-.984s-1.752.328-2.376.984c-.608.64-.912 1.504-.912 2.592s.304 1.96.912 2.616c.624.64 1.416.96 2.376.96zM145.783 13.088h3.744V26h-3.744V13.088zm1.872-1.8c-.688 0-1.248-.2-1.68-.6a1.946 1.946 0 01-.648-1.488c0-.592.216-1.088.648-1.488.432-.4.992-.6 1.68-.6s1.248.192 1.68.576c.432.384.648.864.648 1.44 0 .624-.216 1.144-.648 1.56-.432.4-.992.6-1.68.6zM161.329 25.376c-.368.272-.824.48-1.368.624a7.111 7.111 0 01-1.68.192c-1.536 0-2.728-.392-3.576-1.176-.832-.784-1.248-1.936-1.248-3.456v-5.304h-1.992v-2.88h1.992v-3.144h3.744v3.144h3.216v2.88h-3.216v5.256c0 .544.136.968.408 1.272.288.288.688.432 1.2.432.592 0 1.096-.16 1.512-.48l1.008 2.64z" fill="#FFF"></path>
  <path d="M35.526 18.834c-.958-2.1-3.248-3.337-5.561-2.845l-4.334-7.118c1.6-1.477 2.091-3.89 1.168-5.918C25.97 1.164 24.182 0 22.231 0c-.736 0-1.437.156-2.114.48-2.15 1.008-3.294 3.397-2.804 5.702L8.715 10.72C7.278 9.147 4.86 8.63 2.921 9.555a5.08 5.08 0 00-2.617 2.893 5.158 5.158 0 00.163 3.89c1.005 2.196 3.505 3.433 5.853 2.772l4.334 8.211a5.174 5.174 0 00-.97 5.726C10.504 34.836 12.303 36 14.242 36c.736 0 1.437-.156 2.114-.48 2.068-.973 3.224-3.23 2.839-5.486l7.92-5.786c1.402 1.717 3.914 2.329 5.97 1.368a5.028 5.028 0 002.617-2.904 5.126 5.126 0 00-.175-3.878zM6.554 14.741c-.152.42-.444.744-.841.936-.806.372-1.8 0-2.161-.804a1.651 1.651 0 01-.047-1.248 1.64 1.64 0 01.84-.937c.223-.108.457-.156.69-.156.631 0 1.215.372 1.484.948.163.409.187.853.035 1.26zm19.439 6.986l-7.955 5.81a5.026 5.026 0 00-1.064-.936l5.07-16.398c.398.012.795-.024 1.192-.108l4.334 7.107a5.19 5.19 0 00-1.577 4.525zM9.942 13.12l8.61-4.537c.291.312.607.588.97.816L14.45 25.797a4.82 4.82 0 00-1.484.168l-4.334-8.211a5.148 5.148 0 001.309-4.634zm13.82-7.454a1.617 1.617 0 01-.841.924c-.806.372-1.8 0-2.162-.792a1.65 1.65 0 01-.046-1.248 1.64 1.64 0 01.84-.937c.807-.384 1.8 0 2.162.804.175.397.187.84.047 1.249zM12.71 30.334a1.64 1.64 0 01.841-.936c.223-.108.444-.156.69-.156.63 0 1.215.372 1.483.948.176.396.199.84.047 1.248a1.617 1.617 0 01-.841.925c-.818.384-1.8 0-2.161-.805-.187-.372-.199-.816-.059-1.224zm19.79-8.799a1.64 1.64 0 01-.841.936c-.806.385-1.8 0-2.161-.804a1.62 1.62 0 01-.047-1.236 1.64 1.64 0 01.841-.937c.222-.107.444-.156.69-.156.63 0 1.214.373 1.483.949.163.396.175.84.035 1.248z" style="fill:#F94D4C"></path>
</svg>
