<svg viewBox="0 0 140 140" xmlns="http://www.w3.org/2000/svg">
    <path d="M138.7 73.5a17.8 17.8 0 00-16.2-10.3 18.1 18.1 0 00-5.2.7L97.8 32.4A17.9 17.9 0 0087.2 0a18.6 18.6 0 00-7.5 1.7 17.9 17.9 0 00-9.5 21.7l-38 19.8A17.9 17.9 0 001.7 61.6a17.8 17.8 0 0016.2 10.3 18.1 18.1 0 006.4-1.2l19.2 36a18 18 0 0011.6 31.7 18.6 18.6 0 007.5-1.7 18 18 0 009.8-20.7l35-25.2a17.9 17.9 0 0031.3-17.3zM105 85.1l-35.1 25.3a18.7 18.7 0 00-6.6-5.9l21.5-68.8 2.5.2a18.1 18.1 0 005.1-.8l19.5 31.5a17.9 17.9 0 00-6.9 18.5zm-50 17.4a17.6 17.6 0 00-6.3 1.2l-19.3-36A17.9 17.9 0 0035 48.6l38-19.8a18.7 18.7 0 006.1 5.1l-21.6 68.8zM83.5 9.9a8.4 8.4 0 013.7-.9 9 9 0 018.4 12 8.7 8.7 0 01-4.6 5 8.1 8.1 0 01-3.7.9 9 9 0 01-8.1-5.2 8.9 8.9 0 014.3-11.8zm-65.6 53a9.1 9.1 0 01-8.1-5.1A8.9 8.9 0 0114.2 46a8.1 8.1 0 013.7-.9 8.9 8.9 0 013.8 17 8.4 8.4 0 01-3.8.8zm40.9 65.6a8.4 8.4 0 01-3.7.9 9 9 0 01-8.1-5.2 8.8 8.8 0 014.3-11.8 8.1 8.1 0 013.7-.9 9 9 0 018.1 5.2 8.9 8.9 0 01-4.3 11.8zm67.4-39.4a8.1 8.1 0 01-3.7.9 8.8 8.8 0 01-8.1-5.2 8.9 8.9 0 014.3-11.8 8.4 8.4 0 013.8-.8 8.9 8.9 0 013.7 16.9z"
          fill="#ed220b"></path>
</svg>