<!--
  - Copyright 2024 steadybit GmbH. All rights reserved.
  -->

<svg width="20" height="20" viewBox="0 0 20 20" fill="none" xmlns="http://www.w3.org/2000/svg">
<rect width="20" height="20" rx="10" fill="#2ECC71"/>
<path fill-rule="evenodd" clip-rule="evenodd" d="M11.3534 4.21444C11.3272 4.20856 10.959 4.1319 10.603 4.05961C10.4227 4.023 10.2402 3.98641 10.0997 3.9593C10.0301 3.94587 9.96707 3.93404 9.9186 3.9256C9.89526 3.92153 9.86923 3.91718 9.84524 3.91379C9.83421 3.91223 9.81499 3.90963 9.79291 3.90765C9.78239 3.9067 9.76217 3.90506 9.73717 3.90454L9.73596 3.90451L9.73594 3.90451C9.72379 3.90418 9.64762 3.90211 9.55646 3.92255L5.25827 4.91045C5.03441 4.96192 4.83938 5.0897 4.70245 5.26641C4.56601 5.44249 4.4941 5.65807 4.49414 5.87691V10.8117C4.49414 12.2445 5.04422 13.6235 6.03092 14.644C6.55544 15.1865 7.46623 15.6917 8.15528 16.0352C8.51669 16.2154 8.84934 16.3664 9.09144 16.4724C9.21275 16.5255 9.31195 16.5675 9.38142 16.5965C9.41617 16.6111 9.44353 16.6223 9.46254 16.6301L9.4847 16.6391L9.49349 16.6427L9.77106 16.7542L10.0486 16.6427L10.0507 16.6419L10.0554 16.64L10.0721 16.6332L10.1332 16.608C10.1857 16.5862 10.261 16.5546 10.3541 16.5144C10.54 16.4341 10.7987 16.3191 11.091 16.1795C11.6651 15.9054 12.4089 15.5175 12.9813 15.0973C13.3125 14.8541 13.3839 14.3885 13.1407 14.0572C12.8975 13.726 12.4318 13.6546 12.1006 13.8978C11.6444 14.2327 11.0034 14.5723 10.4497 14.8367C10.1815 14.9648 9.94325 15.0708 9.77106 15.1452L9.68813 15.1091C9.46208 15.0102 9.15282 14.8697 8.81918 14.7034C8.11813 14.3539 7.42631 13.9463 7.10075 13.6096C6.3873 12.8717 5.98224 11.8657 5.98224 10.8117V6.27095L9.74393 5.40636L9.81782 5.42045C9.95103 5.44615 10.1278 5.48158 10.3068 5.51794C10.4854 5.55419 10.6641 5.59096 10.8003 5.61915L10.967 5.65377L11.0183 5.6645L11.0184 5.66452C11.0262 5.66615 11.029 5.66675 11.0277 5.66646C11.4287 5.75639 11.8267 5.50424 11.9166 5.10328C12.0065 4.70231 11.7544 4.30436 11.3534 4.21444ZM16.5854 5.93218C16.2899 5.67195 15.8382 5.69787 15.5748 5.99135L12.345 9.59092L10.9976 8.08933C10.7343 7.79586 10.2826 7.76994 9.98704 8.03016C9.68953 8.29214 9.6622 8.7454 9.92732 9.04086L11.8098 11.1388C11.9464 11.291 12.1412 11.3773 12.345 11.3773C12.5487 11.3773 12.7436 11.291 12.8801 11.1388L16.6451 6.94288C16.9102 6.64741 16.8829 6.19416 16.5854 5.93218Z" fill="white"/>
</svg>
