<!--
  - Copyright 2024 steadybit GmbH. All rights reserved.
  -->

<svg width="20" height="20" viewBox="0 0 20 20" fill="none" xmlns="http://www.w3.org/2000/svg">
<rect width="20" height="20" rx="10" fill="#F94D4C"/>
<path fill-rule="evenodd" clip-rule="evenodd" d="M16.5476 7.53358C16.5461 7.6154 16.5253 7.69527 16.4875 7.76498L13.8511 12.6204C13.7774 12.756 13.5715 12.7037 13.5715 12.5494V9.23646C13.5715 9.15427 13.5049 9.08765 13.4227 9.08765H12.1917C12.1195 9.08772 12.0486 9.06594 11.9863 9.02457C11.924 8.9832 11.8726 8.92373 11.8373 8.85231C11.8021 8.78089 11.7843 8.7001 11.7859 8.6183C11.7874 8.53649 11.8082 8.45663 11.846 8.38696L14.4824 3.53117C14.5561 3.39555 14.762 3.44785 14.762 3.60217V6.91503C14.762 6.99722 14.8286 7.06384 14.9108 7.06384H16.1418C16.2141 7.06387 16.285 7.08572 16.3472 7.12715C16.4095 7.16858 16.4609 7.22808 16.4961 7.29952C16.5313 7.37097 16.5491 7.45176 16.5476 7.53358ZM11.3534 4.21521C11.3272 4.20933 10.959 4.13268 10.603 4.06039C10.4227 4.02378 10.2402 3.98719 10.0997 3.96008C10.0301 3.94664 9.96707 3.93482 9.9186 3.92637C9.89526 3.92231 9.86923 3.91796 9.84524 3.91457C9.83421 3.91301 9.81499 3.9104 9.79291 3.90842C9.78239 3.90748 9.76217 3.90583 9.73717 3.90532L9.73596 3.90529L9.73594 3.90529C9.72379 3.90496 9.64762 3.90288 9.55646 3.92333L5.25827 4.91123C5.03441 4.9627 4.83938 5.09047 4.70245 5.26718C4.56601 5.44327 4.4941 5.65885 4.49414 5.87769V10.8125C4.49414 12.2453 5.04422 13.6242 6.03092 14.6448C6.55544 15.1873 7.46623 15.6925 8.15528 16.036C8.51669 16.2161 8.84934 16.3672 9.09144 16.4732C9.21275 16.5262 9.31195 16.5683 9.38142 16.5973C9.41617 16.6118 9.44353 16.6231 9.46254 16.6309L9.4847 16.6399L9.49349 16.6435L9.77106 16.755L10.0486 16.6435L10.0507 16.6427L10.0554 16.6408L10.0721 16.634L10.1332 16.6088C10.1857 16.587 10.261 16.5553 10.3541 16.5151C10.54 16.4349 10.7987 16.3199 11.091 16.1803C11.6651 15.9061 12.4089 15.5183 12.9813 15.0981C13.3125 14.8549 13.3839 14.3892 13.1407 14.058C12.8975 13.7268 12.4318 13.6554 12.1006 13.8986C11.6444 14.2335 11.0034 14.573 10.4497 14.8375C10.1815 14.9656 9.94325 15.0716 9.77106 15.146L9.68813 15.1099C9.46208 15.011 9.15282 14.8705 8.81918 14.7042C8.11813 14.3547 7.42631 13.9471 7.10075 13.6104C6.3873 12.8725 5.98224 11.8665 5.98224 10.8125V6.27173L9.74393 5.40714L9.81782 5.42123C9.95103 5.44693 10.1278 5.48236 10.3068 5.51871C10.4854 5.55497 10.6641 5.59174 10.8003 5.61993L10.967 5.65454L11.0183 5.66528C11.0261 5.66692 11.029 5.66753 11.0277 5.66724C11.4287 5.75717 11.8267 5.50502 11.9166 5.10405C12.0065 4.70309 11.7544 4.30514 11.3534 4.21521Z" fill="white"/>
</svg>
